<svg width="22" height="25" viewBox="0 0 22 25" fill="none" xmlns="http://www.w3.org/2000/svg">
<g filter="url(#filter0_d_9_3)">
<path d="M17.25 7.50205C17.2498 7.2828 17.1855 7.06747 17.0636 6.87765C16.9417 6.68783 16.7665 6.5302 16.5556 6.42058L11.6944 3.92007C11.4833 3.81033 11.2438 3.75256 11 3.75256C10.7562 3.75256 10.5167 3.81033 10.3056 3.92007L5.44444 6.42058C5.23352 6.5302 5.05832 6.68783 4.93643 6.87765C4.81454 7.06747 4.75025 7.2828 4.75 7.50205V12.5031C4.75025 12.7223 4.81454 12.9377 4.93643 13.1275C5.05832 13.3173 5.23352 13.4749 5.44444 13.5845L10.3056 16.0851C10.5167 16.1948 10.7562 16.2526 11 16.2526C11.2438 16.2526 11.4833 16.1948 11.6944 16.0851L16.5556 13.5845C16.7665 13.4749 16.9417 13.3173 17.0636 13.1275C17.1855 12.9377 17.2498 12.7223 17.25 12.5031V7.50205Z" stroke="#FAFAFA" stroke-width="0.5" stroke-linecap="round" stroke-linejoin="round"/>
<path d="M4.98842 6.86456L11.0301 9.99021L17.0718 6.86456" stroke="#FAFAFA" stroke-width="0.5" stroke-linecap="round" stroke-linejoin="round"/>
<path d="M10.9489 16.2278V9.97656" stroke="#FAFAFA" stroke-width="0.5" stroke-linecap="round" stroke-linejoin="round"/>
<path d="M11.625 7.5L12.25 6.875L11.625 6.25" stroke="#FAFAFA" stroke-width="0.25" stroke-linecap="round" stroke-linejoin="round"/>
<path d="M10.375 6.25L9.75 6.875L10.375 7.5" stroke="#FAFAFA" stroke-width="0.25" stroke-linecap="round" stroke-linejoin="round"/>
<path d="M7.75444 13.125C7.71694 13.125 7.68694 13.1163 7.66444 13.0988C7.64444 13.0813 7.62819 13.0575 7.61569 13.0275L6.77944 10.6163C6.77444 10.6013 6.77194 10.5875 6.77194 10.575C6.77194 10.555 6.77944 10.5375 6.79444 10.5225C6.80944 10.5075 6.82694 10.5 6.84694 10.5H7.04194C7.07194 10.5 7.09444 10.5088 7.10944 10.5263C7.12694 10.5413 7.13694 10.555 7.13944 10.5675L7.87444 12.6938L8.60944 10.5675C8.61444 10.555 8.62444 10.5413 8.63944 10.5263C8.65444 10.5088 8.67694 10.5 8.70694 10.5H8.90194C8.92194 10.5 8.93944 10.5075 8.95444 10.5225C8.97194 10.5375 8.98069 10.555 8.98069 10.575C8.98069 10.5875 8.97819 10.6013 8.97319 10.6163L8.13319 13.0275C8.12319 13.0575 8.10694 13.0813 8.08444 13.0988C8.06444 13.1163 8.03569 13.125 7.99819 13.125H7.75444Z" fill="#FAFAFA"/>
<path d="M13.0489 13.125C13.0239 13.125 13.0026 13.1175 12.9851 13.1025C12.9701 13.085 12.9626 13.0638 12.9626 13.0388V10.59C12.9626 10.5625 12.9701 10.5413 12.9851 10.5263C13.0026 10.5088 13.0239 10.5 13.0489 10.5H13.2364C13.2664 10.5 13.2889 10.5075 13.3039 10.5225C13.3189 10.5375 13.3276 10.55 13.3301 10.56L14.1251 12.075L14.9238 10.56C14.9288 10.55 14.9376 10.5375 14.9501 10.5225C14.9651 10.5075 14.9876 10.5 15.0176 10.5H15.2013C15.2288 10.5 15.2501 10.5088 15.2651 10.5263C15.2826 10.5413 15.2913 10.5625 15.2913 10.59V13.0388C15.2913 13.0638 15.2826 13.085 15.2651 13.1025C15.2501 13.1175 15.2288 13.125 15.2013 13.125H15.0176C14.9926 13.125 14.9713 13.1175 14.9538 13.1025C14.9388 13.085 14.9313 13.0638 14.9313 13.0388V11.1938L14.3051 12.4163C14.2951 12.4413 14.2801 12.4613 14.2601 12.4763C14.2401 12.4888 14.2151 12.495 14.1851 12.495H14.0688C14.0363 12.495 14.0101 12.4888 13.9901 12.4763C13.9726 12.4613 13.9576 12.4413 13.9451 12.4163L13.3189 11.1938V13.0388C13.3189 13.0638 13.3101 13.085 13.2926 13.1025C13.2776 13.1175 13.2576 13.125 13.2326 13.125H13.0489Z" fill="#FAFAFA"/>
</g>
<defs>
<filter id="filter0_d_9_3" x="-3" y="0" width="28" height="28" filterUnits="userSpaceOnUse" color-interpolation-filters="sRGB">
<feFlood flood-opacity="0" result="BackgroundImageFix"/>
<feColorMatrix in="SourceAlpha" type="matrix" values="0 0 0 0 0 0 0 0 0 0 0 0 0 0 0 0 0 0 127 0" result="hardAlpha"/>
<feOffset dy="4"/>
<feGaussianBlur stdDeviation="2"/>
<feComposite in2="hardAlpha" operator="out"/>
<feColorMatrix type="matrix" values="0 0 0 0 0 0 0 0 0 0 0 0 0 0 0 0 0 0 0.25 0"/>
<feBlend mode="normal" in2="BackgroundImageFix" result="effect1_dropShadow_9_3"/>
<feBlend mode="normal" in="SourceGraphic" in2="effect1_dropShadow_9_3" result="shape"/>
</filter>
</defs>
</svg>
