<svg width="20" height="20" viewBox="0 0 20 20" fill="none" xmlns="http://www.w3.org/2000/svg">
<g clip-path="url(#clip0_1_6)">
<g filter="url(#filter0_dddd_1_6)">
<path d="M16.25 7.50205C16.2498 7.2828 16.1855 7.06747 16.0636 6.87765C15.9417 6.68783 15.7665 6.5302 15.5556 6.42058L10.6944 3.92007C10.4833 3.81033 10.2438 3.75256 10 3.75256C9.7562 3.75256 9.51669 3.81033 9.30556 3.92007L4.44444 6.42058C4.23352 6.5302 4.05832 6.68783 3.93643 6.87765C3.81454 7.06747 3.75025 7.2828 3.75 7.50205V12.5031C3.75025 12.7223 3.81454 12.9377 3.93643 13.1275C4.05832 13.3173 4.23352 13.4749 4.44444 13.5845L9.30556 16.0851C9.51669 16.1948 9.7562 16.2526 10 16.2526C10.2438 16.2526 10.4833 16.1948 10.6944 16.0851L15.5556 13.5845C15.7665 13.4749 15.9417 13.3173 16.0636 13.1275C16.1855 12.9377 16.2498 12.7223 16.25 12.5031V7.50205Z" stroke="#FAFAFA" stroke-width="0.5" stroke-linecap="round" stroke-linejoin="round"/>
</g>
<g filter="url(#filter1_d_1_6)">
<path d="M3.98842 6.86456L10.0301 9.99021L16.0718 6.86456" stroke="#FAFAFA" stroke-width="0.5" stroke-linecap="round" stroke-linejoin="round"/>
</g>
<path d="M9.94888 16.2278V9.97656" stroke="#FAFAFA" stroke-width="0.5" stroke-linecap="round" stroke-linejoin="round"/>
<path d="M10.625 7.5L11.25 6.875L10.625 6.25" stroke="#FAFAFA" stroke-width="0.25" stroke-linecap="round" stroke-linejoin="round"/>
<path d="M9.375 6.25L8.75 6.875L9.375 7.5" stroke="#FAFAFA" stroke-width="0.25" stroke-linecap="round" stroke-linejoin="round"/>
<path d="M6.75444 13.125C6.71694 13.125 6.68694 13.1163 6.66444 13.0988C6.64444 13.0813 6.62819 13.0575 6.61569 13.0275L5.77944 10.6163C5.77444 10.6013 5.77194 10.5875 5.77194 10.575C5.77194 10.555 5.77944 10.5375 5.79444 10.5225C5.80944 10.5075 5.82694 10.5 5.84694 10.5H6.04194C6.07194 10.5 6.09444 10.5088 6.10944 10.5263C6.12694 10.5413 6.13694 10.555 6.13944 10.5675L6.87444 12.6938L7.60944 10.5675C7.61444 10.555 7.62444 10.5413 7.63944 10.5263C7.65444 10.5088 7.67694 10.5 7.70694 10.5H7.90194C7.92194 10.5 7.93944 10.5075 7.95444 10.5225C7.97194 10.5375 7.98069 10.555 7.98069 10.575C7.98069 10.5875 7.97819 10.6013 7.97319 10.6163L7.13319 13.0275C7.12319 13.0575 7.10694 13.0813 7.08444 13.0988C7.06444 13.1163 7.03569 13.125 6.99819 13.125H6.75444Z" fill="#FAFAFA"/>
<path d="M12.0489 13.125C12.0239 13.125 12.0026 13.1175 11.9851 13.1025C11.9701 13.085 11.9626 13.0638 11.9626 13.0388V10.59C11.9626 10.5625 11.9701 10.5413 11.9851 10.5263C12.0026 10.5088 12.0239 10.5 12.0489 10.5H12.2364C12.2664 10.5 12.2889 10.5075 12.3039 10.5225C12.3189 10.5375 12.3276 10.55 12.3301 10.56L13.1251 12.075L13.9238 10.56C13.9288 10.55 13.9376 10.5375 13.9501 10.5225C13.9651 10.5075 13.9876 10.5 14.0176 10.5H14.2013C14.2288 10.5 14.2501 10.5088 14.2651 10.5263C14.2826 10.5413 14.2913 10.5625 14.2913 10.59V13.0388C14.2913 13.0638 14.2826 13.085 14.2651 13.1025C14.2501 13.1175 14.2288 13.125 14.2013 13.125H14.0176C13.9926 13.125 13.9713 13.1175 13.9538 13.1025C13.9388 13.085 13.9313 13.0638 13.9313 13.0388V11.1938L13.3051 12.4163C13.2951 12.4413 13.2801 12.4613 13.2601 12.4763C13.2401 12.4888 13.2151 12.495 13.1851 12.495H13.0688C13.0363 12.495 13.0101 12.4888 12.9901 12.4763C12.9726 12.4613 12.9576 12.4413 12.9451 12.4163L12.3189 11.1938V13.0388C12.3189 13.0638 12.3101 13.085 12.2926 13.1025C12.2776 13.1175 12.2576 13.125 12.2326 13.125H12.0489Z" fill="#FAFAFA"/>
</g>
<defs>
<filter id="filter0_dddd_1_6" x="-34.3" y="-34.2974" width="88.6" height="88.6" filterUnits="userSpaceOnUse" color-interpolation-filters="sRGB">
<feFlood flood-opacity="0" result="BackgroundImageFix"/>
<feColorMatrix in="SourceAlpha" type="matrix" values="0 0 0 0 0 0 0 0 0 0 0 0 0 0 0 0 0 0 127 0" result="hardAlpha"/>
<feOffset/>
<feGaussianBlur stdDeviation="0.45"/>
<feColorMatrix type="matrix" values="0 0 0 0 0.231373 0 0 0 0 0.509804 0 0 0 0 0.964706 0 0 0 1 0"/>
<feBlend mode="normal" in2="BackgroundImageFix" result="effect1_dropShadow_1_6"/>
<feColorMatrix in="SourceAlpha" type="matrix" values="0 0 0 0 0 0 0 0 0 0 0 0 0 0 0 0 0 0 127 0" result="hardAlpha"/>
<feOffset/>
<feGaussianBlur stdDeviation="6.3"/>
<feColorMatrix type="matrix" values="0 0 0 0 0.231373 0 0 0 0 0.509804 0 0 0 0 0.964706 0 0 0 1 0"/>
<feBlend mode="normal" in2="effect1_dropShadow_1_6" result="effect2_dropShadow_1_6"/>
<feColorMatrix in="SourceAlpha" type="matrix" values="0 0 0 0 0 0 0 0 0 0 0 0 0 0 0 0 0 0 127 0" result="hardAlpha"/>
<feOffset/>
<feGaussianBlur stdDeviation="10.8"/>
<feColorMatrix type="matrix" values="0 0 0 0 0.231373 0 0 0 0 0.509804 0 0 0 0 0.964706 0 0 0 1 0"/>
<feBlend mode="normal" in2="effect2_dropShadow_1_6" result="effect3_dropShadow_1_6"/>
<feColorMatrix in="SourceAlpha" type="matrix" values="0 0 0 0 0 0 0 0 0 0 0 0 0 0 0 0 0 0 127 0" result="hardAlpha"/>
<feOffset/>
<feGaussianBlur stdDeviation="18.9"/>
<feColorMatrix type="matrix" values="0 0 0 0 0.231373 0 0 0 0 0.509804 0 0 0 0 0.964706 0 0 0 1 0"/>
<feBlend mode="normal" in2="effect3_dropShadow_1_6" result="effect4_dropShadow_1_6"/>
<feBlend mode="normal" in="SourceGraphic" in2="effect4_dropShadow_1_6" result="shape"/>
</filter>
<filter id="filter1_d_1_6" x="-8.44163" y="-5.56549" width="36.9434" height="27.9857" filterUnits="userSpaceOnUse" color-interpolation-filters="sRGB">
<feFlood flood-opacity="0" result="BackgroundImageFix"/>
<feColorMatrix in="SourceAlpha" type="matrix" values="0 0 0 0 0 0 0 0 0 0 0 0 0 0 0 0 0 0 127 0" result="hardAlpha"/>
<feOffset/>
<feGaussianBlur stdDeviation="6.09"/>
<feColorMatrix type="matrix" values="0 0 0 0 0.231373 0 0 0 0 0.509804 0 0 0 0 0.964706 0 0 0 1 0"/>
<feBlend mode="normal" in2="BackgroundImageFix" result="effect1_dropShadow_1_6"/>
<feBlend mode="normal" in="SourceGraphic" in2="effect1_dropShadow_1_6" result="shape"/>
</filter>
<clipPath id="clip0_1_6">
<rect width="20" height="20" fill="white"/>
</clipPath>
</defs>
</svg>
