<svg width="567" height="601" viewBox="0 0 567 601" fill="none" xmlns="http://www.w3.org/2000/svg">
<g filter="url(#filter0_dddddd_1_10)">
<rect width="180.544" height="180.544" rx="22" transform="matrix(0.866025 -0.5 0 1 287 305.272)" fill="#82B2FA"/>
<rect x="1.73205" y="1" width="176.544" height="176.544" rx="20" transform="matrix(0.866025 -0.5 0 1 287.232 306.138)" stroke="#5C7FB3" stroke-width="4"/>
</g>
<g filter="url(#filter1_dddddd_1_10)">
<rect width="180.544" height="180.544" rx="22" transform="matrix(0.866025 0.5 0 1 124 215)" fill="#82B2FA"/>
<rect x="1.73205" y="3" width="176.544" height="176.544" rx="20" transform="matrix(0.866025 0.5 0 1 124.232 214.134)" stroke="#5C7FB3" stroke-width="4"/>
</g>
<g filter="url(#filter2_dddddd_1_10)">
<rect width="180.544" height="180.544" rx="22" transform="matrix(0.866025 0.5 -0.866025 0.5 284.356 117)" fill="#82B2FA"/>
<rect y="2" width="176.544" height="176.544" rx="20" transform="matrix(0.866025 0.5 -0.866025 0.5 286.088 118)" stroke="#5C7FB3" stroke-width="4"/>
</g>
<path d="M330.031 350.413L338.745 379.979L339.077 379.787L347.792 340.158L360.823 332.635L346.796 389.802L331.027 398.907L317 357.936L330.031 350.413Z" fill="black"/>
<path d="M364.916 330.272L379.274 321.982L389.151 344.073L389.649 343.785L399.526 310.29L413.885 302V351.069L402.597 357.586V329.218L402.265 329.41L392.803 362.857L385.997 366.786L376.535 344.073L376.203 344.264V372.824L364.916 379.341V330.272Z" fill="black"/>
<path d="M161.535 345.086L152 339.581L162.743 308.202L174.821 315.175L185.563 358.959L176.028 353.454L168.909 322.112L168.655 321.965L161.535 345.086ZM159.755 329.232L177.681 339.581V347.215L159.755 336.865V329.232Z" fill="black"/>
<path d="M216.858 339.446V377.027L209.485 372.77L197.725 346.236L197.534 346.125V365.87L188.698 360.769V323.188L196.199 327.518L207.768 353.869L208.023 354.016V334.345L216.858 339.446Z" fill="black"/>
<path d="M219.703 341.088L229.556 346.777L235.913 365.714L236.167 365.861L242.524 354.264L252.376 359.952L240.426 378.816V390.634L231.654 385.569V373.752L219.703 341.088Z" fill="black"/>
<path fill-rule="evenodd" clip-rule="evenodd" d="M299.963 176.702C299.952 178.826 296.961 180.553 293.281 180.559L243.412 180.641L243.27 209.433C243.259 211.558 240.268 213.285 236.588 213.291C232.909 213.297 229.935 211.58 229.945 209.455L230.106 176.817C230.117 174.692 233.108 172.965 236.787 172.959L293.319 172.866C296.999 172.86 299.973 174.577 299.963 176.702ZM330.9 194.563C334.579 194.557 337.554 196.274 337.543 198.399L337.382 231.038C337.372 233.162 334.38 234.889 330.701 234.895L274.169 234.988C270.489 234.994 267.515 233.277 267.526 231.152C267.536 229.028 270.527 227.301 274.207 227.295L324.076 227.213L324.219 198.421C324.229 196.296 327.22 194.569 330.9 194.563Z" fill="black"/>
<defs>
<filter id="filter0_dddddd_1_10" x="163.768" y="100.166" width="402.82" height="500.485" filterUnits="userSpaceOnUse" color-interpolation-filters="sRGB">
<feFlood flood-opacity="0" result="BackgroundImageFix"/>
<feColorMatrix in="SourceAlpha" type="matrix" values="0 0 0 0 0 0 0 0 0 0 0 0 0 0 0 0 0 0 127 0" result="hardAlpha"/>
<feOffset/>
<feGaussianBlur stdDeviation="1.46705"/>
<feColorMatrix type="matrix" values="0 0 0 0 0.101961 0 0 0 0 0.0901961 0 0 0 0 0.0901961 0 0 0 1 0"/>
<feBlend mode="normal" in2="BackgroundImageFix" result="effect1_dropShadow_1_10"/>
<feColorMatrix in="SourceAlpha" type="matrix" values="0 0 0 0 0 0 0 0 0 0 0 0 0 0 0 0 0 0 127 0" result="hardAlpha"/>
<feOffset/>
<feGaussianBlur stdDeviation="2.93409"/>
<feColorMatrix type="matrix" values="0 0 0 0 0.101961 0 0 0 0 0.0901961 0 0 0 0 0.0901961 0 0 0 1 0"/>
<feBlend mode="normal" in2="effect1_dropShadow_1_10" result="effect2_dropShadow_1_10"/>
<feColorMatrix in="SourceAlpha" type="matrix" values="0 0 0 0 0 0 0 0 0 0 0 0 0 0 0 0 0 0 127 0" result="hardAlpha"/>
<feOffset/>
<feGaussianBlur stdDeviation="10.2693"/>
<feColorMatrix type="matrix" values="0 0 0 0 0.101961 0 0 0 0 0.0901961 0 0 0 0 0.0901961 0 0 0 1 0"/>
<feBlend mode="normal" in2="effect2_dropShadow_1_10" result="effect3_dropShadow_1_10"/>
<feColorMatrix in="SourceAlpha" type="matrix" values="0 0 0 0 0 0 0 0 0 0 0 0 0 0 0 0 0 0 127 0" result="hardAlpha"/>
<feOffset/>
<feGaussianBlur stdDeviation="20.5387"/>
<feColorMatrix type="matrix" values="0 0 0 0 0.101961 0 0 0 0 0.0901961 0 0 0 0 0.0901961 0 0 0 1 0"/>
<feBlend mode="normal" in2="effect3_dropShadow_1_10" result="effect4_dropShadow_1_10"/>
<feColorMatrix in="SourceAlpha" type="matrix" values="0 0 0 0 0 0 0 0 0 0 0 0 0 0 0 0 0 0 127 0" result="hardAlpha"/>
<feOffset/>
<feGaussianBlur stdDeviation="35.2091"/>
<feColorMatrix type="matrix" values="0 0 0 0 0.101961 0 0 0 0 0.0901961 0 0 0 0 0.0901961 0 0 0 1 0"/>
<feBlend mode="normal" in2="effect4_dropShadow_1_10" result="effect5_dropShadow_1_10"/>
<feColorMatrix in="SourceAlpha" type="matrix" values="0 0 0 0 0 0 0 0 0 0 0 0 0 0 0 0 0 0 127 0" result="hardAlpha"/>
<feOffset/>
<feGaussianBlur stdDeviation="61.616"/>
<feColorMatrix type="matrix" values="0 0 0 0 0.101961 0 0 0 0 0.0901961 0 0 0 0 0.0901961 0 0 0 1 0"/>
<feBlend mode="normal" in2="effect5_dropShadow_1_10" result="effect6_dropShadow_1_10"/>
<feBlend mode="normal" in="SourceGraphic" in2="effect6_dropShadow_1_10" result="shape"/>
</filter>
<filter id="filter1_dddddd_1_10" x="0.768059" y="100.166" width="402.82" height="500.485" filterUnits="userSpaceOnUse" color-interpolation-filters="sRGB">
<feFlood flood-opacity="0" result="BackgroundImageFix"/>
<feColorMatrix in="SourceAlpha" type="matrix" values="0 0 0 0 0 0 0 0 0 0 0 0 0 0 0 0 0 0 127 0" result="hardAlpha"/>
<feOffset/>
<feGaussianBlur stdDeviation="1.46705"/>
<feColorMatrix type="matrix" values="0 0 0 0 0.101961 0 0 0 0 0.0901961 0 0 0 0 0.0901961 0 0 0 1 0"/>
<feBlend mode="normal" in2="BackgroundImageFix" result="effect1_dropShadow_1_10"/>
<feColorMatrix in="SourceAlpha" type="matrix" values="0 0 0 0 0 0 0 0 0 0 0 0 0 0 0 0 0 0 127 0" result="hardAlpha"/>
<feOffset/>
<feGaussianBlur stdDeviation="2.93409"/>
<feColorMatrix type="matrix" values="0 0 0 0 0.101961 0 0 0 0 0.0901961 0 0 0 0 0.0901961 0 0 0 1 0"/>
<feBlend mode="normal" in2="effect1_dropShadow_1_10" result="effect2_dropShadow_1_10"/>
<feColorMatrix in="SourceAlpha" type="matrix" values="0 0 0 0 0 0 0 0 0 0 0 0 0 0 0 0 0 0 127 0" result="hardAlpha"/>
<feOffset/>
<feGaussianBlur stdDeviation="10.2693"/>
<feColorMatrix type="matrix" values="0 0 0 0 0.101961 0 0 0 0 0.0901961 0 0 0 0 0.0901961 0 0 0 1 0"/>
<feBlend mode="normal" in2="effect2_dropShadow_1_10" result="effect3_dropShadow_1_10"/>
<feColorMatrix in="SourceAlpha" type="matrix" values="0 0 0 0 0 0 0 0 0 0 0 0 0 0 0 0 0 0 127 0" result="hardAlpha"/>
<feOffset/>
<feGaussianBlur stdDeviation="20.5387"/>
<feColorMatrix type="matrix" values="0 0 0 0 0.101961 0 0 0 0 0.0901961 0 0 0 0 0.0901961 0 0 0 1 0"/>
<feBlend mode="normal" in2="effect3_dropShadow_1_10" result="effect4_dropShadow_1_10"/>
<feColorMatrix in="SourceAlpha" type="matrix" values="0 0 0 0 0 0 0 0 0 0 0 0 0 0 0 0 0 0 127 0" result="hardAlpha"/>
<feOffset/>
<feGaussianBlur stdDeviation="35.2091"/>
<feColorMatrix type="matrix" values="0 0 0 0 0.101961 0 0 0 0 0.0901961 0 0 0 0 0.0901961 0 0 0 1 0"/>
<feBlend mode="normal" in2="effect4_dropShadow_1_10" result="effect5_dropShadow_1_10"/>
<feColorMatrix in="SourceAlpha" type="matrix" values="0 0 0 0 0 0 0 0 0 0 0 0 0 0 0 0 0 0 127 0" result="hardAlpha"/>
<feOffset/>
<feGaussianBlur stdDeviation="61.616"/>
<feColorMatrix type="matrix" values="0 0 0 0 0.101961 0 0 0 0 0.0901961 0 0 0 0 0.0901961 0 0 0 1 0"/>
<feBlend mode="normal" in2="effect5_dropShadow_1_10" result="effect6_dropShadow_1_10"/>
<feBlend mode="normal" in="SourceGraphic" in2="effect6_dropShadow_1_10" result="shape"/>
</filter>
<filter id="filter2_dddddd_1_10" x="15.9288" y="0.211708" width="536.854" height="414.121" filterUnits="userSpaceOnUse" color-interpolation-filters="sRGB">
<feFlood flood-opacity="0" result="BackgroundImageFix"/>
<feColorMatrix in="SourceAlpha" type="matrix" values="0 0 0 0 0 0 0 0 0 0 0 0 0 0 0 0 0 0 127 0" result="hardAlpha"/>
<feOffset/>
<feGaussianBlur stdDeviation="1.46705"/>
<feColorMatrix type="matrix" values="0 0 0 0 0.101961 0 0 0 0 0.0901961 0 0 0 0 0.0901961 0 0 0 1 0"/>
<feBlend mode="normal" in2="BackgroundImageFix" result="effect1_dropShadow_1_10"/>
<feColorMatrix in="SourceAlpha" type="matrix" values="0 0 0 0 0 0 0 0 0 0 0 0 0 0 0 0 0 0 127 0" result="hardAlpha"/>
<feOffset/>
<feGaussianBlur stdDeviation="2.93409"/>
<feColorMatrix type="matrix" values="0 0 0 0 0.101961 0 0 0 0 0.0901961 0 0 0 0 0.0901961 0 0 0 1 0"/>
<feBlend mode="normal" in2="effect1_dropShadow_1_10" result="effect2_dropShadow_1_10"/>
<feColorMatrix in="SourceAlpha" type="matrix" values="0 0 0 0 0 0 0 0 0 0 0 0 0 0 0 0 0 0 127 0" result="hardAlpha"/>
<feOffset/>
<feGaussianBlur stdDeviation="10.2693"/>
<feColorMatrix type="matrix" values="0 0 0 0 0.101961 0 0 0 0 0.0901961 0 0 0 0 0.0901961 0 0 0 1 0"/>
<feBlend mode="normal" in2="effect2_dropShadow_1_10" result="effect3_dropShadow_1_10"/>
<feColorMatrix in="SourceAlpha" type="matrix" values="0 0 0 0 0 0 0 0 0 0 0 0 0 0 0 0 0 0 127 0" result="hardAlpha"/>
<feOffset/>
<feGaussianBlur stdDeviation="20.5387"/>
<feColorMatrix type="matrix" values="0 0 0 0 0.101961 0 0 0 0 0.0901961 0 0 0 0 0.0901961 0 0 0 1 0"/>
<feBlend mode="normal" in2="effect3_dropShadow_1_10" result="effect4_dropShadow_1_10"/>
<feColorMatrix in="SourceAlpha" type="matrix" values="0 0 0 0 0 0 0 0 0 0 0 0 0 0 0 0 0 0 127 0" result="hardAlpha"/>
<feOffset/>
<feGaussianBlur stdDeviation="35.2091"/>
<feColorMatrix type="matrix" values="0 0 0 0 0.101961 0 0 0 0 0.0901961 0 0 0 0 0.0901961 0 0 0 1 0"/>
<feBlend mode="normal" in2="effect4_dropShadow_1_10" result="effect5_dropShadow_1_10"/>
<feColorMatrix in="SourceAlpha" type="matrix" values="0 0 0 0 0 0 0 0 0 0 0 0 0 0 0 0 0 0 127 0" result="hardAlpha"/>
<feOffset/>
<feGaussianBlur stdDeviation="61.616"/>
<feColorMatrix type="matrix" values="0 0 0 0 0.101961 0 0 0 0 0.0901961 0 0 0 0 0.0901961 0 0 0 1 0"/>
<feBlend mode="normal" in2="effect5_dropShadow_1_10" result="effect6_dropShadow_1_10"/>
<feBlend mode="normal" in="SourceGraphic" in2="effect6_dropShadow_1_10" result="shape"/>
</filter>
</defs>
</svg>
